<?xml version="1.0" standalone="no"?>
<!DOCTYPE svg PUBLIC "-//W3C//DTD SVG 20010904//EN"
 "http://www.w3.org/TR/2001/REC-SVG-20010904/DTD/svg10.dtd">
<svg version="1.0" xmlns="http://www.w3.org/2000/svg"
 width="1024.000000pt" height="1024.000000pt" viewBox="0 0 1024.000000 1024.000000"
 preserveAspectRatio="xMidYMid meet">
<metadata>
Created by potrace 1.14, written by Peter Selinger 2001-2017
</metadata>
<g transform="translate(0.000000,1024.000000) scale(0.100000,-0.100000)"
fill="#000000" stroke="none">
<path d="M5595 10234 c-32 -6 -102 -30 -110 -37 -5 -4 -32 -24 -59 -43 -27
-19 -46 -34 -42 -34 4 0 -3 -10 -16 -22 -27 -27 -77 -100 -94 -138 -3 -8 -13
-31 -22 -50 -9 -19 -17 -37 -17 -40 -1 -3 -7 -17 -13 -32 -31 -71 -36 -84 -38
-98 -2 -8 -8 -16 -14 -18 -5 -2 -7 -8 -4 -13 3 -6 2 -15 -3 -22 -5 -7 -24 -50
-42 -97 -18 -47 -37 -96 -43 -110 -6 -14 -13 -29 -14 -35 -8 -32 -30 -81 -39
-87 -5 -4 -7 -8 -3 -8 4 0 -6 -31 -22 -69 -15 -38 -26 -72 -22 -75 3 -3 -1 -6
-8 -6 -7 0 -10 -3 -7 -7 4 -3 3 -11 -1 -17 -7 -9 -43 -98 -48 -116 -1 -6 -9
-26 -47 -124 -17 -43 -30 -85 -30 -92 0 -8 -5 -14 -10 -14 -5 0 -7 -6 -4 -14
3 -7 2 -17 -3 -22 -4 -5 -13 -27 -20 -49 -7 -22 -17 -45 -22 -52 -5 -7 -7 -17
-3 -23 3 -5 2 -10 -2 -10 -8 0 -12 -15 -15 -57 -1 -7 -5 -13 -10 -13 -4 0 -11
-18 -14 -40 -4 -22 -9 -38 -13 -36 -4 3 -6 -11 -6 -30 1 -19 -2 -34 -6 -34 -5
0 -11 -17 -16 -37 -9 -46 -8 -44 -16 -63 -5 -13 -30 -120 -43 -185 -2 -11 -6
-31 -9 -45 -9 -39 -18 -103 -19 -122 0 -10 -3 -18 -6 -18 -3 0 -5 -10 -6 -22
0 -13 -4 -50 -7 -83 -17 -145 -20 -209 -20 -350 1 -139 6 -229 18 -315 3 -19
6 -42 6 -50 0 -8 3 -22 6 -30 3 -8 7 -31 7 -50 1 -19 4 -39 8 -45 3 -5 9 -30
14 -55 9 -51 11 -59 14 -62 1 -2 4 -16 6 -33 3 -16 8 -32 12 -35 4 -3 8 -18
10 -35 2 -16 7 -32 10 -35 4 -3 9 -18 11 -35 1 -16 7 -37 11 -45 4 -8 10 -28
11 -45 2 -16 8 -33 14 -37 6 -5 5 -8 -3 -8 -8 0 -10 -5 -5 -12 4 -7 8 -24 10
-38 3 -39 2 -220 -2 -270 -6 -67 -14 -141 -19 -175 -3 -16 -8 -50 -12 -75 -3
-25 -10 -53 -16 -63 -5 -9 -6 -21 -3 -26 3 -5 1 -11 -5 -13 -6 -2 -12 -14 -15
-27 -2 -13 -12 -32 -21 -42 -10 -11 -13 -19 -9 -19 5 0 -6 -15 -23 -33 -18
-18 -30 -36 -27 -40 3 -4 2 -5 -1 -3 -6 4 -30 -13 -66 -46 -10 -10 -18 -15
-18 -12 0 4 -6 2 -12 -3 -19 -15 -78 -34 -123 -41 -66 -9 -225 -4 -225 8 0 3
-12 7 -27 8 -59 5 -68 7 -74 16 -4 4 -19 10 -35 12 -39 5 -168 37 -174 44 -3
3 -14 6 -25 8 -25 3 -72 15 -159 41 -38 11 -73 18 -77 15 -5 -3 -9 0 -9 7 0 7
-3 10 -6 6 -3 -3 -23 1 -44 8 -21 7 -55 16 -75 19 -21 4 -42 9 -49 13 -6 4
-20 9 -31 10 -11 2 -27 6 -35 9 -8 4 -24 8 -35 10 -27 5 -59 12 -65 15 -3 1
-9 3 -15 4 -9 2 -77 16 -97 21 -5 1 -9 3 -10 4 -2 1 -16 3 -33 5 -16 1 -30 3
-30 5 0 1 -13 4 -30 5 -74 8 -85 10 -85 15 0 3 -17 6 -38 7 -83 4 -197 12
-199 14 -10 6 -251 4 -264 -2 -9 -5 -21 -3 -27 3 -7 7 -12 8 -12 2 0 -5 -17
-10 -37 -11 -55 -2 -164 -19 -197 -29 -11 -4 -34 -8 -51 -9 -16 -1 -32 -3 -35
-5 -3 -1 -9 -3 -15 -5 -5 -1 -12 -3 -15 -5 -3 -1 -18 -4 -35 -6 -16 -1 -37 -4
-45 -7 -8 -2 -36 -7 -63 -12 -26 -4 -50 -12 -53 -17 -4 -6 -10 -5 -14 3 -7 10
-11 10 -24 0 -9 -8 -16 -10 -16 -6 0 4 -6 2 -13 -4 -8 -6 -17 -8 -20 -5 -3 3
-11 2 -18 -2 -8 -4 -29 -9 -49 -11 -19 -2 -42 -6 -50 -10 -16 -7 -30 -10 -72
-14 -16 -2 -28 -6 -28 -9 0 -3 -10 -7 -22 -7 -13 -1 -52 -9 -88 -18 -35 -8
-72 -17 -82 -18 -10 -2 -20 -6 -24 -9 -3 -4 -12 -4 -20 -1 -8 3 -14 1 -14 -4
0 -8 -27 -14 -77 -17 -13 0 -23 -4 -23 -7 0 -4 -15 -10 -32 -14 -40 -9 -35 -8
-128 -35 -41 -12 -82 -23 -90 -25 -8 -2 -15 -4 -15 -5 0 -1 -8 -3 -18 -6 -9
-2 -25 -6 -35 -8 -9 -3 -18 -5 -19 -6 -2 -2 -7 -4 -13 -5 -5 -1 -12 -4 -15 -5
-3 -1 -8 -3 -12 -4 -34 -9 -106 -31 -142 -43 -24 -8 -53 -16 -64 -19 -11 -2
-23 -7 -26 -11 -6 -7 -14 -9 -64 -15 -9 -1 -17 -6 -17 -11 0 -4 -4 -6 -8 -3
-5 3 -22 -2 -38 -10 -16 -9 -30 -15 -31 -15 -2 1 -4 1 -5 0 -2 0 -14 -2 -27
-5 -14 -2 -31 -9 -38 -16 -7 -6 -16 -8 -20 -5 -3 4 -15 1 -27 -5 -11 -7 -27
-13 -34 -14 -8 -1 -21 -6 -30 -10 -9 -4 -19 -8 -22 -9 -56 -19 -118 -76 -147
-135 -17 -34 -27 -150 -13 -150 4 0 7 -7 8 -15 1 -8 3 -22 4 -30 1 -8 5 -12
10 -9 4 3 8 0 8 -7 0 -7 16 -31 35 -54 19 -23 31 -45 28 -49 -4 -3 -2 -6 3 -6
5 0 40 -29 79 -65 38 -36 82 -71 97 -78 16 -6 28 -15 28 -19 0 -5 3 -7 8 -7 4
1 9 1 12 -1 3 -1 16 -3 29 -6 14 -2 30 -9 36 -14 7 -5 15 -7 18 -3 4 3 13 0
22 -7 8 -7 15 -10 15 -6 0 4 13 0 30 -9 16 -8 32 -15 35 -15 22 1 25 -1 20
-10 -4 -6 -3 -10 2 -9 28 5 43 -5 57 -42 9 -23 14 -51 11 -63 -7 -24 -27 -68
-35 -76 -13 -13 -90 -120 -90 -125 0 -3 -10 -16 -22 -28 -13 -12 -24 -29 -26
-37 -2 -8 -7 -17 -11 -20 -4 -3 -18 -21 -31 -40 -13 -19 -27 -37 -30 -40 -15
-13 -72 -110 -65 -110 3 0 0 -11 -5 -24 -5 -13 -6 -27 -2 -30 3 -4 7 -16 9
-28 4 -26 80 -101 94 -92 5 3 9 0 9 -5 0 -6 3 -10 8 -9 4 1 24 -6 45 -15 22
-9 58 -22 80 -29 23 -6 47 -15 52 -19 6 -4 24 -11 40 -14 34 -7 58 -13 65 -15
3 -1 9 -2 14 -1 4 1 14 -4 22 -10 8 -6 14 -8 14 -4 0 4 7 2 15 -5 8 -7 15 -9
15 -6 0 4 6 1 13 -6 8 -7 25 -22 40 -32 14 -11 24 -23 21 -28 -3 -4 0 -8 6 -8
7 0 10 -7 6 -15 -3 -8 -2 -15 2 -15 9 0 3 -81 -8 -95 -4 -5 -13 -27 -19 -47
-7 -21 -17 -38 -22 -38 -5 0 -8 -3 -7 -7 1 -5 -7 -26 -19 -48 -11 -22 -20 -43
-19 -46 0 -4 -8 -16 -18 -28 -11 -12 -16 -21 -12 -21 4 0 -2 -13 -13 -29 -11
-15 -18 -31 -14 -35 3 -3 1 -6 -5 -6 -7 0 -12 -7 -12 -15 0 -8 -5 -15 -11 -15
-5 0 -8 -4 -4 -9 3 -5 -2 -17 -11 -25 -8 -9 -13 -16 -9 -16 3 0 0 -10 -7 -22
-13 -24 -18 -43 -21 -93 -1 -21 7 -39 28 -61 17 -18 33 -30 37 -28 3 2 12 -1
20 -8 7 -7 33 -14 58 -16 25 -1 59 -5 75 -8 38 -7 87 -13 145 -18 25 -3 45 -5
45 -6 0 -2 47 -10 85 -15 19 -2 35 -4 35 -5 0 -1 16 -4 35 -7 39 -5 75 -22
108 -51 18 -16 23 -31 23 -69 0 -26 -3 -59 -6 -73 -3 -14 -8 -32 -10 -40 -2
-8 -4 -15 -5 -15 -1 0 -3 -7 -5 -15 -3 -8 -6 -22 -8 -30 -2 -8 -6 -22 -10 -30
-21 -58 -38 -118 -38 -132 0 -10 -4 -20 -10 -23 -5 -4 -9 -14 -9 -24 0 -10 -8
-36 -17 -57 -9 -22 -16 -42 -15 -46 1 -4 -5 -28 -14 -54 -8 -25 -13 -52 -10
-59 2 -7 1 -16 -4 -21 -15 -16 22 -80 54 -94 29 -14 204 -22 211 -10 2 3 27 5
57 4 29 -1 56 4 60 10 6 8 8 8 8 0 0 -12 29 -12 48 0 7 4 12 2 12 -4 0 -6 5
-8 11 -4 6 3 47 8 90 10 59 2 78 0 72 -9 -5 -9 -3 -9 8 0 32 26 128 -22 132
-65 1 -12 4 -22 8 -22 4 0 5 -26 4 -57 -1 -32 -3 -58 -4 -58 -1 0 -4 -16 -7
-35 -2 -19 -6 -51 -9 -70 -3 -19 -7 -50 -10 -68 -2 -18 -7 -37 -10 -42 -4 -6
-9 -36 -12 -68 -5 -62 -10 -97 -13 -97 -1 0 -3 -27 -4 -60 -4 -97 25 -138 99
-142 39 -2 130 13 150 26 6 3 21 7 35 9 14 1 32 6 40 9 8 4 24 8 35 10 28 4
48 9 65 16 8 4 26 8 40 10 14 2 33 7 42 12 10 4 25 5 33 1 8 -3 15 -1 15 5 0
6 6 9 14 6 7 -3 18 -1 24 5 5 5 32 11 59 13 26 2 53 4 58 5 6 1 12 2 15 0 3
-1 16 -3 29 -6 31 -6 68 -41 87 -83 14 -33 19 -77 29 -226 7 -107 14 -179 21
-230 4 -27 7 -58 8 -67 0 -10 3 -18 7 -18 4 0 10 -11 13 -25 4 -14 11 -25 17
-25 6 0 7 -5 3 -12 -4 -6 -3 -8 3 -5 6 4 18 -2 28 -13 13 -14 22 -17 31 -9 8
6 14 7 18 0 7 -10 26 -8 94 10 23 6 42 16 42 21 0 5 4 7 9 4 4 -3 25 3 46 14
21 11 42 17 46 14 5 -3 9 0 9 5 0 6 8 11 18 11 10 0 26 6 37 13 11 7 39 19 63
27 23 7 42 17 42 22 0 4 3 7 8 6 4 -1 21 5 37 12 17 7 33 14 38 15 4 2 10 4
15 5 4 1 10 2 15 1 4 0 7 3 7 8 0 6 21 9 47 7 37 -2 51 -9 75 -34 15 -18 28
-40 28 -50 0 -10 4 -22 9 -28 5 -5 11 -25 14 -44 3 -19 10 -51 16 -70 6 -19
12 -46 14 -60 5 -28 26 -106 35 -130 3 -8 6 -18 7 -22 2 -5 4 -9 5 -10 1 -2 4
-12 5 -23 3 -29 51 -96 78 -110 13 -6 32 -10 43 -9 10 2 31 5 47 6 15 1 27 5
27 8 0 4 6 7 13 7 12 0 128 53 137 63 3 4 20 12 38 19 17 8 32 18 32 24 0 6 3
7 7 4 3 -4 17 0 30 8 13 9 23 12 23 8 0 -5 5 -1 10 7 5 8 13 15 17 16 21 2 63
25 63 34 0 5 3 9 7 8 5 -2 43 15 86 37 65 33 79 38 87 25 5 -8 7 -17 4 -21 -2
-4 0 -10 6 -14 5 -3 10 -12 10 -20 0 -8 5 -26 12 -42 6 -15 12 -30 12 -33 9
-39 31 -108 39 -117 5 -7 7 -13 4 -13 -3 0 2 -24 13 -54 10 -30 16 -57 13 -59
-2 -3 0 -13 6 -24 9 -18 20 -49 21 -58 0 -14 32 -65 40 -65 5 0 7 -6 4 -13 -2
-7 7 -19 20 -27 14 -7 23 -17 20 -22 -3 -4 0 -8 6 -8 7 0 24 -8 38 -18 71 -48
233 -63 304 -29 21 10 38 22 38 27 0 6 7 10 15 10 8 0 15 7 15 15 0 8 4 15 8
15 5 0 23 27 40 60 18 33 29 60 26 60 -3 0 2 7 10 16 9 8 16 23 16 32 0 9 7
31 16 47 8 17 33 73 55 125 22 52 44 104 49 115 16 39 23 60 22 68 -1 4 2 7 8
7 5 0 10 9 10 20 0 11 4 20 8 20 5 0 9 7 10 15 1 8 3 22 4 30 1 8 5 15 10 15
4 0 8 9 8 20 0 11 5 20 12 20 6 0 9 3 5 6 -3 3 4 29 17 58 12 28 23 53 24 56
0 3 6 19 13 35 7 17 13 33 14 38 2 4 3 8 5 10 1 1 3 10 5 20 2 10 11 30 20 44
12 17 13 23 4 18 -8 -5 -6 1 4 12 9 11 17 26 17 35 0 8 7 29 15 46 9 17 18 39
20 49 4 15 86 264 103 313 3 8 6 18 7 23 2 4 3 8 5 10 2 2 5 16 14 54 2 12 10
32 16 44 10 17 10 20 -2 13 -10 -6 -11 -5 -1 8 7 8 10 18 6 21 -3 4 -2 7 3 7
5 0 11 8 12 18 2 20 10 56 12 60 2 1 3 10 5 20 1 9 5 29 9 43 4 14 9 34 11 45
2 10 4 19 5 19 2 0 8 31 14 65 2 14 7 43 12 65 4 22 7 48 8 58 0 9 3 17 6 17
3 0 6 12 6 28 1 15 4 41 7 57 7 37 18 134 22 196 1 26 5 52 9 57 3 6 2 13 -4
17 -6 4 -7 12 -3 18 17 26 16 314 -2 507 -16 172 -26 243 -37 258 -7 8 -6 12
3 12 9 0 10 3 4 8 -9 6 -36 115 -40 162 0 9 -4 20 -7 26 -4 6 -10 24 -13 40
-7 33 -13 57 -15 64 -1 3 -2 8 -1 13 0 4 -3 7 -7 7 -4 0 -9 12 -10 28 -1 15
-9 45 -16 67 -8 22 -12 48 -11 57 2 10 1 18 -3 18 -4 0 -8 8 -9 18 -1 16 -5
34 -16 87 -3 11 -8 40 -12 65 -8 44 -9 56 -19 130 -3 19 -8 49 -11 65 -15 65
-8 154 16 210 7 17 13 33 13 37 1 4 7 13 14 19 6 7 12 18 12 25 0 7 11 22 25
35 13 13 25 30 25 37 0 7 4 11 8 8 5 -3 15 6 22 19 7 14 19 25 25 25 7 0 20 9
30 20 10 11 21 17 25 15 4 -3 10 2 14 10 3 8 14 15 25 15 11 0 26 6 33 12 15
15 30 18 111 22 37 2 57 0 57 -8 0 -6 5 -4 10 4 8 12 10 12 10 1 0 -8 3 -11 6
-8 4 3 15 2 25 -3 12 -7 19 -6 22 3 4 9 6 9 6 -1 1 -7 6 -10 12 -7 5 4 22 2
37 -4 15 -5 43 -12 62 -15 19 -3 51 -8 70 -12 19 -3 40 -7 47 -8 7 -1 15 -5
19 -8 3 -4 12 -4 20 -1 8 3 14 1 14 -3 0 -5 12 -10 28 -11 25 -1 64 -9 70 -13
1 -2 10 -3 20 -5 9 -1 28 -5 42 -8 14 -4 36 -9 50 -11 14 -3 25 -5 25 -6 0 -3
81 -18 135 -26 19 -3 47 -10 61 -15 14 -6 30 -9 35 -8 5 2 32 -2 59 -9 28 -6
61 -14 75 -17 14 -2 45 -9 69 -15 24 -6 46 -8 49 -5 3 2 10 1 16 -4 6 -5 27
-11 46 -14 19 -3 46 -8 60 -11 13 -3 40 -8 60 -11 20 -3 47 -8 60 -11 14 -3
35 -6 48 -7 12 -1 22 -4 22 -7 0 -3 10 -6 23 -7 12 0 42 -3 67 -7 25 -3 70 -9
100 -12 103 -10 125 -13 125 -14 0 -7 244 -4 259 3 14 7 16 6 11 -4 -6 -8 -4
-10 5 -4 7 4 24 9 39 10 87 9 139 16 161 20 14 4 34 8 45 9 49 9 181 38 188
43 5 3 22 7 38 10 16 2 55 13 86 24 30 10 59 16 64 13 5 -3 9 -1 9 4 0 9 65
28 83 24 4 -1 7 3 7 10 0 6 2 9 6 6 3 -3 28 3 55 13 28 11 54 17 60 14 5 -4 9
-1 9 4 0 6 8 11 18 11 10 0 22 4 28 9 5 6 20 11 34 13 14 2 35 9 48 16 12 7
22 10 22 6 0 -3 6 -1 14 5 8 6 18 11 22 10 5 -1 22 3 37 9 16 7 35 12 43 12 8
0 14 4 14 9 0 5 8 8 17 7 9 -2 28 3 43 10 14 8 36 15 48 17 12 2 25 6 28 10 4
4 18 7 31 7 13 0 23 5 23 11 0 5 4 8 9 5 5 -3 35 3 67 14 33 12 59 20 59 20 0
-1 8 1 18 4 28 10 42 13 50 15 4 0 21 8 37 16 17 9 30 13 30 9 0 -4 6 -1 13 5
8 6 17 8 20 4 4 -3 7 0 7 7 0 7 3 10 7 7 3 -4 11 -2 18 3 6 5 21 11 32 13 12
2 28 9 37 16 9 7 16 11 16 7 0 -3 17 3 37 14 21 11 43 20 50 20 6 0 13 3 15 8
2 4 37 24 80 45 73 37 138 87 138 107 0 6 4 10 8 10 13 0 71 130 78 175 3 22
7 47 9 55 4 31 -29 85 -90 146 -34 34 -66 60 -69 57 -3 -3 -8 2 -12 11 -3 9
-10 16 -15 16 -4 0 -28 13 -51 29 -24 16 -46 27 -50 25 -5 -3 -8 0 -8 6 0 6
-4 8 -10 5 -5 -3 -10 -3 -10 2 0 9 -110 54 -121 50 -4 -1 -16 6 -26 16 -11 9
-22 15 -24 13 -2 -2 -10 2 -17 10 -7 8 -8 14 -2 14 5 0 10 7 10 15 0 8 7 15
15 15 8 0 15 4 15 10 0 5 16 26 35 46 19 19 35 40 35 45 0 5 7 9 15 9 8 0 14
4 12 8 -1 5 16 29 38 54 22 24 51 59 65 77 14 19 33 41 43 49 9 9 17 20 17 25
0 4 11 20 24 34 14 15 23 30 20 35 -3 4 0 8 6 8 7 0 10 6 7 14 -3 8 -1 16 4
18 16 5 18 84 4 112 -8 14 -11 26 -7 26 3 0 -9 11 -28 25 -19 14 -40 25 -47
25 -7 0 -13 4 -13 9 0 4 -30 18 -67 30 -38 12 -77 26 -88 31 -11 4 -54 18 -95
29 -41 12 -93 27 -115 34 -22 6 -43 12 -47 12 -14 0 -77 58 -73 66 3 4 2 10
-3 13 -10 6 -7 53 6 86 5 14 11 30 13 35 1 6 11 19 21 29 9 10 15 22 13 26 -3
5 2 11 11 14 8 3 13 10 10 15 -3 5 1 12 10 15 8 3 13 10 10 15 -3 4 3 16 14
26 11 10 20 24 20 32 0 7 5 13 10 13 6 0 10 5 10 11 0 6 11 25 25 43 14 18 25
38 25 44 0 7 5 12 10 12 6 0 10 7 10 15 0 8 5 15 10 15 6 0 10 7 10 15 0 8 5
15 11 15 5 0 7 5 4 10 -3 6 -2 10 3 10 5 0 17 17 28 38 10 20 23 43 28 50 5 8
11 30 13 51 4 40 -21 80 -54 86 -10 2 -18 4 -18 5 0 3 -40 11 -75 15 -19 2
-35 4 -35 5 0 2 -122 12 -170 14 -22 0 -43 6 -47 11 -5 6 -8 5 -8 -3 0 -7 -5
-10 -11 -6 -6 4 -39 8 -73 11 -127 8 -152 11 -179 22 -16 6 -33 11 -38 11 -5
0 -9 5 -9 11 0 5 -4 8 -8 5 -5 -3 -16 8 -26 25 -9 16 -14 29 -10 29 3 0 2 6
-3 13 -11 13 -12 85 -2 102 4 6 5 18 4 28 -2 9 0 17 4 17 4 0 13 23 20 50 7
28 18 50 24 50 5 0 7 3 4 6 -3 4 -1 16 5 28 7 11 13 26 14 31 6 29 10 41 17
46 4 3 10 19 13 34 3 16 10 35 15 41 5 7 11 20 13 31 2 10 9 38 16 62 6 25 13
54 14 66 1 11 6 26 10 33 4 7 2 12 -4 12 -6 0 -8 4 -5 10 3 5 -3 20 -14 32
-12 12 -21 18 -21 12 0 -5 -4 -3 -9 5 -7 11 -36 13 -132 12 -68 -2 -163 -3
-211 -4 -49 -1 -88 -6 -88 -11 0 -5 -5 -4 -12 1 -15 11 -58 11 -75 0 -7 -5
-13 -5 -13 0 0 4 -22 9 -49 10 -72 3 -106 24 -119 73 -5 22 -7 40 -3 40 3 0 7
26 8 58 3 91 8 142 13 142 3 0 5 17 5 38 -1 20 1 42 4 47 3 6 6 26 6 45 0 19
3 40 6 45 3 6 5 33 4 60 0 28 4 53 10 57 7 5 7 8 -1 8 -6 0 -10 15 -9 35 1 19
-2 35 -7 35 -4 0 -8 6 -8 13 0 43 -86 64 -189 45 -25 -5 -58 -10 -74 -13 -50
-8 -110 -22 -114 -25 -2 -2 -11 -3 -20 -4 -10 -1 -22 -4 -28 -7 -5 -4 -26 -9
-45 -13 -19 -3 -46 -9 -60 -12 -14 -3 -56 -7 -95 -8 -53 -3 -75 0 -89 13 -16
13 -18 13 -11 1 4 -8 -3 -4 -16 10 -13 13 -23 28 -21 32 1 5 -2 8 -7 8 -13 0
-32 79 -35 147 0 18 -5 33 -9 33 -4 0 -3 8 2 19 6 10 7 21 3 25 -3 4 -8 37 -9
74 -3 92 -10 181 -18 215 -4 22 -3 27 7 21 10 -6 10 -5 2 7 -7 8 -17 32 -24
55 -22 73 -91 89 -211 48 -30 -10 -56 -19 -59 -19 -10 -3 -45 -17 -79 -32 -18
-8 -39 -16 -45 -17 -6 -1 -18 -6 -26 -11 -8 -5 -18 -10 -22 -11 -5 -1 -10 -3
-13 -4 -3 -1 -8 -3 -12 -5 -5 -1 -17 -5 -28 -10 -168 -69 -219 -75 -263 -29
-15 16 -28 31 -28 34 -1 8 -19 65 -24 75 -3 6 -2 4 -15 60 -10 47 -12 54 -15
58 -3 3 -10 39 -12 65 -1 12 -5 22 -8 22 -3 0 -7 14 -8 32 -2 17 -7 36 -11 42
-5 6 -12 27 -16 47 -7 40 -58 123 -68 112 -4 -3 -7 -1 -7 7 0 9 -3 10 -13 1
-10 -8 -17 -7 -25 1 -7 7 -12 8 -12 2 0 -6 -6 -11 -12 -12 -32 -2 -61 -13 -90
-33 -17 -13 -28 -17 -23 -9 5 8 -4 6 -21 -6 -16 -11 -47 -29 -69 -39 -22 -11
-41 -23 -43 -27 -2 -5 -10 -8 -17 -8 -8 0 -21 -8 -31 -17 -10 -10 -18 -16 -18
-14 -1 6 -99 -41 -106 -50 -4 -6 -46 -22 -60 -24 -3 0 -10 -3 -16 -7 -22 -14
-70 -18 -96 -7 -33 14 -69 86 -83 169 -6 35 -13 65 -15 65 -1 0 -3 7 -5 15 -2
8 -7 26 -10 40 -3 14 -8 41 -11 60 -3 19 -9 37 -14 38 -6 2 -10 14 -10 27 0
13 -5 27 -10 30 -6 4 -8 10 -6 14 3 4 -4 14 -15 21 -10 8 -19 19 -19 24 0 16
-71 76 -107 91 -31 13 -97 24 -118 19z"/>
</g>
</svg>
