<?xml version="1.0" encoding="UTF-8"?><svg id="Layer_1" xmlns="http://www.w3.org/2000/svg" viewBox="0 0 1024 874.81"><path d="M832.85,492.39h-47.46c-234.47,0-468.94,0-703.4-.03-12.21,0-24.53,.63-36.6-.77C14.67,488-.35,467.58,0,439.12c.36-28.48,15.88-48.44,46.72-51.28,12.12-1.12,24.4-.63,36.61-.63,233.25-.03,466.49-.02,699.74-.02h49.34c-13.67-14.66-21.71-24.13-30.61-32.7-85.28-82.2-170.76-164.2-256.03-246.41-8.74-8.43-17.8-17.05-24.39-27.1-14.88-22.7-9.93-44.97,7.46-63.61,16.54-17.72,37.24-23.28,59.59-10.07,9.34,5.52,18.39,12.04,26.24,19.51,126.46,120.41,252.85,240.9,378.92,361.73,40.21,38.53,40.51,63.63,1.07,101.45-126.92,121.71-253.65,243.61-382.2,363.58-14.76,13.78-41.77,23.74-60.74,20.7-14.77-2.37-35.76-27.52-36.07-42.91-.4-19.6,12.94-43.93,27.84-58.66,85.1-84.1,172.46-165.92,258.96-248.62,8.41-8.04,16.14-16.78,30.4-31.68Z"/></svg>