<?xml version="1.0" encoding="UTF-8"?><svg id="Layer_1" xmlns="http://www.w3.org/2000/svg" viewBox="0 0 1023.79 1024"><path d="M.09,511.34c0-119.17-.1-238.34,.05-357.51,.06-49.03,17.62-90.42,56.2-121.55C78.1,14.71,103.34,4.18,131.36,1.89,149.23,.43,167.24,.13,185.18,.12c227.98-.11,455.95-.21,683.93,.02,59.49,.06,105.74,25.04,136.19,76.78,13.61,23.12,18.3,49,18.32,75.49,.16,239.86,.31,479.73-.06,719.59-.09,57.72-24.79,102.66-75.18,132.21-23.08,13.54-48.53,19.63-75.1,19.65-241.08,.17-482.16,.2-723.24,.03-64.56-.04-119.71-38.19-140.7-98.65-5.87-16.92-8.74-35.7-8.86-53.66C-.28,751.51,.09,631.42,.09,511.34ZM512.19,109.4c-120.41,0-240.82-.02-361.23,.01-28.03,0-41.74,13.3-41.75,41.38-.1,240.82-.1,481.64,0,722.45,.01,28.06,13.71,41.34,41.79,41.34,240.51,.02,481.03,.03,721.54,0,27.99,0,42.07-14.1,42.08-42.29,.04-240.21,.05-480.42-.1-720.62,0-6.28-1.02-12.82-2.94-18.8-5.14-15.98-18.01-23.45-39.08-23.46-120.1-.02-240.21-.01-360.31-.01Z"/><path d="M621.03,237.83c35.05,0,70.1-.43,105.14,.17,20.22,.35,38.19,6.49,50.16,24.72,21.17,32.23,2.16,76.56-35.8,82.6-7.47,1.19-15.11,1.78-22.67,1.79-66.44,.14-132.87,.11-199.31,.05-13.64-.01-26.68-2.79-38.05-10.71-23.78-16.56-29.58-50.5-13.33-74.52,12-17.75,29.82-23.56,49.64-23.92,34.73-.62,69.48-.17,104.22-.17Z"/><path d="M621.33,457.33c34.74,0,69.49-.39,104.22,.15,20.2,.31,38.22,6.12,50.39,24.25,21.74,32.39,2.79,77.03-35.7,83.12-7.17,1.13-14.5,1.74-21.76,1.76-66.74,.13-133.48,.12-200.22,.04-13.63-.02-26.64-2.86-38.01-10.86-23.66-16.65-29.29-50.61-12.92-74.6,12.09-17.71,29.96-23.35,49.77-23.69,34.73-.6,69.48-.17,104.22-.17Z"/><path d="M621.83,786.17c-35.05,0-70.1,.36-105.14-.15-18.86-.27-36.25-5.62-48-21.82-24.22-33.42-5.62-80.72,35.52-85.73,6.32-.77,12.68-1.57,19.03-1.58,67.05-.11,134.09-.25,201.14,.15,8.93,.05,18.29,1.8,26.66,4.9,22.74,8.43,36.46,31.11,33.8,53.69-3.19,27.09-19.47,44.79-45.24,48.78-6.88,1.06-13.89,1.65-20.85,1.69-32.3,.17-64.61,.08-96.91,.08Z"/><path d="M219.64,292.13c.17-42.15,30.82-72.68,72.8-72.52,42.14,.16,72.44,30.57,72.55,72.83,.12,42.13-30.13,72.61-72.4,72.96-42.2,.35-73.13-30.71-72.95-73.28Z"/><path d="M364.31,517.86c-1.51,42.08-35.98,68.83-75.85,66.76-47.83-2.49-72.05-40.26-68.5-79.88,3.64-40.63,34.36-67.12,75.7-65.33,47.03,2.04,72.25,38.6,68.65,78.45Z"/><path d="M364.4,726.51c3.09,39.05-21.65,75.02-67.78,77.52-40.16,2.18-72.34-22.83-76.58-64.32-4.04-39.53,19.96-78.32,68.37-80.82,40.46-2.09,74.83,25.21,75.99,67.63Z"/></svg>