<?xml version="1.0" encoding="utf-8"?>
<!-- Generator: Adobe Illustrator 28.0.0, SVG Export Plug-In . SVG Version: 6.00 Build 0)  -->
<svg version="1.1" id="Layer_1" xmlns="http://www.w3.org/2000/svg" xmlns:xlink="http://www.w3.org/1999/xlink" x="0px" y="0px"
	 viewBox="0 0 24 24" style="enable-background:new 0 0 24 24;" xml:space="preserve">
<style type="text/css">
	.st0{clip-path:url(#SVGID_00000174584367956164518090000005769200939277738168_);}
</style>
<g>
	<defs>
		<rect id="SVGID_1_" x="0" y="0" width="23.9" height="23.9"/>
	</defs>
	<clipPath id="SVGID_00000078727331422389963900000004693128815847137975_">
		<use xlink:href="#SVGID_1_"  style="overflow:visible;"/>
	</clipPath>
	<g id="ellipsis.circle" style="clip-path:url(#SVGID_00000078727331422389963900000004693128815847137975_);">
		<g id="Group">
			<path id="Vector" d="M12,23.9c6.5,0,12-5.4,12-12c0-6.5-5.4-12-12-12C5.5,0,0,5.5,0,12C0,18.5,5.5,23.9,12,23.9z M12,22
				c-5.5,0-9.9-4.4-9.9-10C2.1,6.5,6.5,2,12,2c5.5,0,10,4.4,10,10C22,17.5,17.5,22,12,22z"/>
			<path id="Vector_2" d="M17.5,13.7c0.9,0,1.7-0.8,1.7-1.7s-0.8-1.7-1.7-1.7c-0.9,0-1.7,0.8-1.7,1.7S16.5,13.7,17.5,13.7z"/>
			<path id="Vector_3" d="M12,13.7c0.9,0,1.7-0.8,1.7-1.7s-0.8-1.7-1.7-1.7S10.3,11,10.3,12S11.1,13.7,12,13.7z"/>
			<path id="Vector_4" d="M6.5,13.7c0.9,0,1.7-0.8,1.7-1.7s-0.8-1.7-1.7-1.7c-0.9,0-1.7,0.8-1.7,1.7S5.6,13.7,6.5,13.7z"/>
		</g>
	</g>
</g>
</svg>
