<?xml version="1.0" encoding="UTF-8"?><svg id="Layer_1" xmlns="http://www.w3.org/2000/svg" viewBox="0 0 982.28 1024"><path d="M982.23,380.02c1.05,25.75-13.29,44.03-29.9,60.68-16.41,16.44-33.9,31.79-50.86,47.68-13.42,12.58-13.47,34.61-.09,47.15,16.76,15.71,33.72,31.22,50.37,47.04,15.68,14.89,26.8,32.34,29.32,54.42,1.45,12.68,.64,25.07-4.43,36.89-12.7,29.59-24.39,59.7-38.63,88.53-16.13,32.65-37.28,62.47-62.08,89.1-22.87,24.57-51.82,34.18-85.17,25.22-24.43-6.56-48.89-13.24-72.85-21.32-17.02-5.74-38.05,5.5-42.19,24.7-5.45,25.24-10.84,50.6-18.33,75.27-10.39,34.19-34.1,53.65-69.82,59.93-49.53,8.71-99.2,11.13-149.1,6.06-20.06-2.04-40.03-6.06-59.68-10.72-27.57-6.54-43.69-26.64-51.9-52-8.27-25.52-14.08-51.92-19.54-78.23-3.83-18.44-24.7-31.1-42.72-24.87-23.38,8.09-47.39,14.44-71.33,20.79-34.47,9.15-63.31-.04-86.87-27.18-40.67-46.84-72.47-98.86-93.54-157.28-5.59-15.5-12.05-30.74-11.98-47.78,.06-16.1,3.64-31.25,14.72-42.86,20.97-21.99,42.79-43.19,64.7-64.26,14.89-14.32,14.83-35.67-.2-50.09-21.36-20.49-43.04-40.75-63.04-62.52-18.71-20.36-21.02-46.19-11.91-70.72,12.01-32.37,26.71-63.88,42.24-94.76,16.86-33.53,39.69-63.5,65.17-90.83,21.27-22.82,49.32-28.72,79.53-20.71,24.45,6.49,48.95,13.05,72.87,21.22,18.15,6.19,38.8-6.97,42.44-25.29,5.03-25.31,11.04-50.52,18.48-75.22,10.27-34.06,34.06-53.02,69.32-59.35C445-.2,494.95-2.39,545.12,2.67c19.8,2,39.51,6.02,58.89,10.64,27.52,6.56,43.8,26.35,51.98,51.87,8.03,25.04,13.33,50.98,19.47,76.6,5.54,23.11,21.21,32.47,44.07,25.95,25.1-7.16,50.05-14.99,75.41-21.08,33.3-7.99,61.32,3.24,83.31,28.33,43.06,49.15,74.4,105.22,95.4,167.08,2.22,6.55,4.83,13.01,6.38,19.72,1.37,5.93,1.51,12.14,2.19,18.22Zm-98.28-6.62c-.73-2.19-1.19-3.72-1.75-5.22-16.46-44.71-39.63-85.54-70.13-122.22-3.42-4.12-6.38-4.45-10.85-3.01-9.63,3.1-19.24,6.39-29.08,8.7-21.71,5.1-43.44,12.9-65.38,13.73-50.11,1.9-101.81-36.1-117.26-83.81-7.7-23.78-13.41-48.21-19.43-72.5-1.58-6.36-4.64-8.69-10.72-9.16-15.42-1.19-30.84-4.11-46.21-3.83-30.89,.56-61.76,2.67-92.61,4.61-2.28,.14-5.61,3.72-6.27,6.26-3.6,13.92-6.97,27.93-9.57,42.06-5.58,30.28-15.54,58.31-39.42,79.33-30.5,26.83-65.91,41.34-106.58,34.87-25.86-4.12-50.98-13.03-76.34-20.14-5.29-1.48-8.49-.69-12.11,3.71-29.61,35.97-52.42,75.76-68.79,119.37-2.27,6.05-1.22,9.46,3.29,13.65,15.07,13.99,29.62,28.54,44.58,42.65,51.84,48.88,49.16,135.45-2.56,183.28-14.31,13.24-28.61,26.5-43.15,39.49-3.75,3.35-4.35,6.13-2.55,10.96,16.37,44.2,39.5,84.43,69.4,120.85,3.41,4.16,6.46,5.05,11.58,3.5,19.38-5.85,38.92-11.14,58.36-16.77,27.27-7.9,54.19-7.72,80.53,3.59,37.87,16.26,66.39,41.79,77.8,82.64,6.01,21.52,10.19,43.56,14.72,65.46,1.1,5.33,3.24,7.52,8.58,8.25,46.3,6.36,92.57,6.35,138.87,.02,5.31-.73,7.67-2.94,8.89-8.11,4.62-19.7,9.74-39.29,14.54-58.95,15.84-64.9,78.15-107.22,143.88-95.85,24.28,4.2,47.89,12.4,71.63,19.39,6.16,1.82,9.55,.68,13.5-4.15,29.67-36.27,52.43-76.42,68.83-120.28,1.64-4.38,1.2-7.07-2.31-10.32-15.07-13.99-29.93-28.22-44.71-42.52-52.81-51.08-52.2-134.57,1.35-184.99,14.2-13.36,28.63-26.48,42.92-39.74,1.7-1.58,3.18-3.38,4.53-4.82Z"/><path d="M491.35,703.76c-104.98-.2-191.73-86.87-191.84-191.68-.12-105.04,87.23-192.43,192.16-192.26,105.12,.17,192,87.39,191.84,192.58-.16,104.61-87.48,191.56-192.16,191.36Zm.05-95.41c57.75,.19,95.98-46.81,96.15-96.09,.17-51.05-39.81-96.51-95.55-96.69-55.57-.18-96.64,43.62-96.56,96.49,.07,51.33,39.25,96.22,95.96,96.28Z"/></svg>