<?xml version="1.0" encoding="UTF-8"?><svg id="Layer_1" xmlns="http://www.w3.org/2000/svg" viewBox="0 0 1024 1026.42"><path d="M220.06,786.37c-49.18,0-91.87,.11-134.56-.07-12.23-.05-24.56-.12-36.66-1.63-29.52-3.68-47.89-22.99-48.8-50.12-.96-28.39,18.15-51.73,49.16-53.12,53.79-2.4,107.73-2.16,161.6-1.72,19.78,.16,31.29-4.1,35.51-26.3,18.49-97.44,38.61-194.57,57.97-291.84,.67-3.35-.37-7.04-1.01-16.47-35.11,0-70.09,.15-105.06-.05-24.48-.14-49.07,.49-73.42-1.51-31.85-2.62-50.96-23.03-51.2-51.52-.24-28.48,18.85-50.71,50.41-52.03,53.8-2.26,107.74-1.49,161.62-1.81q44.64-.26,52.89-44.43c8.83-46.94,17.33-93.94,26.94-140.72,7.9-38.48,32.15-57.85,62.8-52.01,33.59,6.4,49.43,32.32,42.2,72.8-9.42,52.76-20.33,105.24-31.29,161.38h259c9.57-50.13,19.16-100.41,28.78-150.68,2.76-14.43,4.52-29.17,8.67-43.2,8.76-29.62,34.32-45.72,61.29-39.99,29.05,6.17,45.64,27.48,40.86,59.79-7.71,52.05-18.55,103.64-27.93,155.46-.84,4.66-.69,9.51-1.47,21.58,25.04,0,48.75-.03,72.46,0,26.95,.04,53.93-.7,80.84,.4,40.31,1.65,61.95,20.49,62.35,52.43,.41,32.07-21.31,52.47-61.08,53.55-50.19,1.36-100.44,.85-150.66,.4-17.7-.16-29.87,2.57-33.93,23.74-18.7,97.4-38.76,194.54-58.17,291.8-.9,4.52-.12,9.38-.12,18.93,29.61,0,57.42,0,85.23,0,24.5,0,49.01-.35,73.5,.12,48.46,.93,72.43,19.34,71.68,54.41-.72,33.83-23.68,51.56-70.11,52.22-48.99,.7-98.06,1.74-146.97-.38-28.9-1.25-41.13,8.1-45.25,37.45-6.46,46-17.63,91.35-26.88,136.95-1.7,8.39-2.98,16.98-5.79,25-10,28.51-37.12,45.78-61.96,40.1-28.07-6.41-45.28-32.91-39.59-65.28,8.47-48.23,18.85-96.12,28.19-144.19,1.57-8.09,1.94-16.41,3.41-29.45-56.02,0-109.62-.51-163.2,.2-30.3,.4-69.63-8.12-88.31,7.37-18.81,15.6-17.64,55.84-24.19,85.52-6.86,31.09-11.83,62.59-18.79,93.65-8.28,36.94-34.64,58-63.72,52.43-31.73-6.08-46.85-34.31-39.21-74.8,9.94-52.67,20.45-105.22,32-164.36Zm454.87-437.71c-12.99-1.55-21.26-3.37-29.55-3.4-66.02-.24-132.07,.76-198.06-.61-24.33-.5-33.9,7.99-38.37,31.99-16.99,91.31-36.27,182.19-54.45,273.28-1.61,8.05-1.51,16.44-2.42,27.17h256.5c21.95-108.66,43.66-216.12,66.34-328.43Z"/></svg>