<?xml version="1.0" encoding="utf-8"?>
<!-- Generator: Adobe Illustrator 27.9.0, SVG Export Plug-In . SVG Version: 6.00 Build 0)  -->
<svg version="1.1" id="Layer_1" xmlns="http://www.w3.org/2000/svg" xmlns:xlink="http://www.w3.org/1999/xlink" x="0px" y="0px"
	 viewBox="0 0 28 28" style="enable-background:new 0 0 28 28;" xml:space="preserve">
<path d="M10.6,24.4h6.8v-8.5c0-0.5-0.4-0.9-0.9-0.9h-5c-0.6,0-0.9,0.4-0.9,0.9V24.4z M6,25.6h15.9c1.7,0,2.6-0.9,2.6-2.6V10.1
	l-1.9-1.3v13.8c0,0.8-0.4,1.2-1.1,1.2H6.4c-0.8,0-1.2-0.4-1.2-1.2V8.8l-1.9,1.3V23C3.4,24.7,4.3,25.6,6,25.6z M0,12.6
	c0,0.5,0.4,0.9,1,0.9c0.3,0,0.6-0.2,0.8-0.4l11.7-9.8c0.3-0.2,0.6-0.2,0.8,0l11.7,9.8c0.2,0.2,0.5,0.4,0.8,0.4c0.6,0,1-0.3,1-0.9
	c0-0.4-0.1-0.6-0.4-0.8L15.4,1.6c-0.9-0.7-1.9-0.7-2.8,0L0.4,11.8C0.1,12,0,12.3,0,12.6z M21.6,7.3l2.9,2.5V4.4
	c0-0.5-0.3-0.8-0.8-0.8h-1.3c-0.5,0-0.8,0.3-0.8,0.8V7.3z"/>
</svg>
