<?xml version="1.0" encoding="UTF-8"?><svg id="Layer_1" xmlns="http://www.w3.org/2000/svg" viewBox="0 0 128 128"><defs><style>.cls-1{stroke-width:0px;}</style></defs><path class="cls-1" d="m113.78,54.59c0,.38,0,.61,0,.84,0,13.31-.02,40.88-.03,54.19,0,4.22-1.11,8.11-3.65,11.53-1.74,2.34-4.01,4-6.64,5.2-2.63,1.19-5.42,1.64-8.29,1.64-20.9,0-41.8.01-62.7,0-4.02,0-7.73-1.06-11.07-3.41-2.48-1.75-4.23-4.05-5.48-6.77-1.21-2.63-1.69-5.41-1.69-8.28,0-13.25.02-40.76.02-54.01v-.89c-.58.46-1.06.83-1.53,1.2-1.59,1.23-3.13,2.55-4.79,3.67-2.18,1.48-4.79,1.18-6.46-.83-1.7-2.05-2.14-4.64-.19-6.92.89-1.04,2-1.89,3.05-2.79,4.85-4.13,9.72-8.25,14.58-12.38,4.79-4.06,9.58-8.11,14.37-12.17,4.77-4.05,9.54-8.1,14.31-12.15,4.24-3.6,8.47-7.23,12.74-10.81,2.34-1.96,5.07-1.94,7.44.06,4.32,3.63,8.62,7.3,12.93,10.95,8.92,7.56,17.83,15.13,26.74,22.69,5.96,5.06,11.92,10.13,17.88,15.17.87.73,1.67,1.51,2.18,2.54.83,1.68.51,3.3-.31,4.88-1.16,2.24-4.28,3.66-6.99,1.83-1.57-1.06-3.02-2.28-4.52-3.44-.61-.47-1.2-.96-1.92-1.53Zm-28.47,62.69c.13.03.18.06.24.06,3.67,0,7.35.03,11.02-.03,1.47-.02,2.82-.52,3.99-1.46,1.86-1.51,2.58-3.51,2.58-5.84,0-16.59.03-47.44.01-64.03,0-.25-.15-.57-.34-.74-1.41-1.24-2.85-2.44-4.28-3.65-10.56-8.95-21.13-17.9-31.69-26.84-.93-.79-1.86-1.57-2.78-2.34-.11.07-.16.09-.21.13-6.47,5.47-12.93,10.95-19.4,16.42-6.34,5.37-12.68,10.75-19.04,16.11-.38.32-.54.63-.54,1.14.01,16.44-.01,47.12-.01,63.55,0,.43,0,.87.05,1.3.2,1.88.97,3.47,2.44,4.7,1.37,1.15,2.98,1.57,4.73,1.57,3.34,0,6.68,0,10.02,0,.19,0,.37,0,.59,0v-.93c0-10.77,0-21.53,0-32.3,0-.69.03-1.38.13-2.07.52-3.71,4.34-7.45,9.01-7.4,8.12.08,16.24.03,24.36.02,3.12,0,5.54,1.31,7.43,3.73,1.26,1.62,1.71,3.47,1.71,5.48,0,10.86,0,21.73,0,32.59v.8Zm-31.96-31.94v31.97h21.29v-31.97h-21.29Z"/></svg>