<?xml version="1.0" encoding="UTF-8"?><svg id="Layer_1" xmlns="http://www.w3.org/2000/svg" viewBox="0 0 895.26 1024"><path d="M702.2,383.94c22.97,0,41.95-.45,60.89,.08,75.39,2.09,130.1,54.3,131,129.55,1.52,127.09,1.62,254.23-.05,381.32-.98,75.08-56.11,128.23-131.77,128.52-209.35,.81-418.72,.74-628.07,.05-78.57-.26-132.85-54.65-133.47-133.54-.97-123.9-.94-247.81-.02-371.71,.6-80.36,55.28-133.18,136.19-134.25,16.94-.22,33.88-.03,55.9-.03,0-42.22-.25-82.31,.06-122.39,.46-59.26,15.35-114.12,51.69-161.89C310.22,13.31,422.89-20.98,528.61,12.87c102.84,32.93,170.59,126.48,173.42,240.83,1.03,41.59,.17,83.23,.17,130.25Zm-251.4,94.78c-103.58,0-207.16-.11-310.74,.06-38.76,.06-46.76,7.98-46.83,47.16-.21,118.53-.21,237.06,0,355.59,.07,39.31,8.03,47.3,46.67,47.32,205.03,.12,410.05,.12,615.08,0,38.76-.02,46.76-7.98,46.83-47.16,.21-118.53,.21-237.06,0-355.59-.07-39.31-8.03-47.26-46.67-47.32-101.44-.17-202.89-.06-304.33-.06Zm158.73-96.55c0-41.89,.27-82.09-.16-122.28-.14-12.73-.97-25.68-3.48-38.13-14.56-72.1-73.26-123.51-144.82-127.58-80.03-4.56-150.31,37.22-166,110.96-12.13,57-8.99,117.25-12.71,177.04h327.17Z"/></svg>