<?xml version="1.0" encoding="utf-8"?>
<!-- Generator: Adobe Illustrator 27.9.0, SVG Export Plug-In . SVG Version: 6.00 Build 0)  -->
<svg version="1.1" id="Layer_2_00000052812341660746727880000005723769822646866061_"
	 xmlns="http://www.w3.org/2000/svg" xmlns:xlink="http://www.w3.org/1999/xlink" x="0px" y="0px" viewBox="0 0 778.7 783.2"
	 style="enable-background:new 0 0 778.7 783.2;" xml:space="preserve">
<path d="M431.5,0c15.4,4.1,22.6,15.3,25.9,29.9c1.1,5,2.4,10,3.7,15.6c3.4-1.7,6.4-3,9.3-4.5c7.6-3.8,14.9-8.1,22.7-11.5
	c13-5.7,22-1.7,26.5,11.8c2.4,7.1,3.9,14.4,5.9,21.7c0.6,2.4,1.4,4.7,2.3,7.6c8-3.1,15.5-6.3,23.1-9c5.1-1.9,10.4-3.7,15.7-4.7
	c10.9-2,18.8,3.1,20.8,14.1c1.8,9.8,2,19.8,2.9,29.8c0.3,3.3,0.8,6.6,1.2,10.8c4.4-0.7,8.5-1.2,12.5-2c8.3-1.6,16.6-3.7,25-5
	c14.4-2.2,23.2,5.2,22.8,19.7c-0.3,10.3-1.8,20.5-2.8,30.8c-0.2,1.6-0.3,3.3-0.5,4.9c10,0,19.6,0,29.2,0c3.7,0,7.3-0.2,11,0.1
	c11.3,0.8,17.8,8.8,15.3,19.8c-1.8,7.8-4.7,15.2-7.2,22.8c-1.5,4.4-3.2,8.7-4.8,13.1c-1.4,3.7,0,5,3.8,5.3
	c11.5,0.8,22.9,1.9,34.3,2.9c1.8,0.2,3.6,0.5,5.4,1c12.4,3.2,17.3,13.1,11.5,24.5c-3.9,7.7-9,14.8-13.5,22.1
	c-2.8,4.5-5.6,9-8.6,13.8c8.2,2.6,15.9,5,23.6,7.6c22.7,7.6,27.2,22.1,12.8,41.1c-4.3,5.7-9,11.1-13.9,17.1c1.8,1,3.7,1.6,5.1,2.8
	c7.2,5.6,14.6,10.9,21.3,17c5.1,4.7,6,11.3,4.5,18.1c-2.9,13.4-9.7,23.6-22.4,30c-18.1,9.1-37.3,15-56.5,20.9
	c-21.3,6.5-42.4,13.9-63.9,19.6c-26.6,7.2-53.5,5.2-80.2-0.2c-30.7-6.2-61.3-12.7-91.9-18.9c-16.3-3.2-29.8,9.6-26.7,25.9
	c3.9,20.4,8.9,40.6,13,61c7.5,37.4,5.2,74.5-3.4,111.5c-8.8,38.1-24,74-39.1,109.9c-2.2,5.2-4.4,10.4-6.7,15.6
	c-5.4,11.9-13.9,19.4-27.8,18.8c-14.5-0.6-25.9-6.3-31.7-20.2c-3-7.3-4.8-15.2-7.2-22.8c-0.2-0.8-0.6-1.5-1.1-2.8
	c-6.5,3.4-12.7,6.7-19,9.9c-3.7,1.9-7.4,3.9-11.3,5.3c-13.2,5.1-23.1,0.8-27.8-12.5c-2.8-8-4.6-16.3-6.8-24.5
	c-0.4-1.4-0.8-2.9-1.2-4.5c-9.4,3.8-18.6,7.6-27.8,11.4c-1.5,0.6-3.1,1.2-4.7,1.8c-13.5,4.4-24.9-1.8-27.3-15.7
	c-1.8-10.1-2.2-20.5-3.1-30.8c-0.6-6.6-0.8-7-7.1-5.4c-10.8,2.6-21.6,5.5-32.4,8c-16.4,3.8-27-5.7-24.7-22.4
	c1.4-10.4,3.2-20.7,4.8-31.1c0.2-1.5,0.4-2.9,0.5-4.4c-6.2,0-12.1-0.1-18.1,0c-7.2,0.2-14.3,1-21.4,0.8
	c-13.8-0.4-21.3-10.3-17.8-23.7c2.8-10.8,6.4-21.3,9.7-32c0.7-2.2,1.2-4.4,2-7.4c-9.6-1.4-18.6-2.7-27.6-3.9c-2.5-0.3-5-0.6-7.4-1.1
	c-14.4-2.7-20.9-14-15.2-27.4c3.8-9,8.8-17.6,13.1-26.3c1-1.9,1.7-3.9,2.8-6.4c-2.9-1-5.4-1.7-7.8-2.6c-7.4-2.6-15-4.7-22-8
	c-14-6.5-17.3-19.6-8.6-32.3c5.8-8.5,11.9-16.8,18.1-25.5c-2-0.7-3.5-1.3-5.1-1.6c-13.7-2.9-23.4-11.6-31.6-22.2
	c-14-18.2-8-39.4,13.8-46.2c32.5-10.1,65.3-19.5,98.3-28.2c18.1-4.8,36.8-8.1,55.3-11c27.1-4.2,53.8-0.5,80.1,6.3
	c20,5.2,39.9,10.6,59.8,15.8c2.6,0.7,5.2,1.2,7.8,1.5c13.1,1.5,22.2-4.9,24.7-17.8c3.6-19,4.4-37.6-1.4-56.7
	c-12.4-40.8-9.4-81.7,2-122.2c11.3-40.1,27.6-78.4,43.6-116.8c5.6-13.5,15.6-22.9,29.9-27.4L431.5,0L431.5,0z"/>
</svg>
