<?xml version="1.0" encoding="UTF-8"?><svg id="Layer_2" xmlns="http://www.w3.org/2000/svg" viewBox="0 0 778.7 783.17"><path d="M431.49,0c15.39,4.12,22.61,15.3,25.91,29.91,1.13,4.99,2.35,9.96,3.7,15.64,3.42-1.66,6.38-3.03,9.28-4.51,7.56-3.85,14.93-8.13,22.68-11.54,13.02-5.73,22-1.7,26.52,11.82,2.37,7.08,3.92,14.44,5.88,21.66,.64,2.37,1.41,4.7,2.29,7.59,7.98-3.14,15.47-6.26,23.09-9.02,5.14-1.86,10.37-3.73,15.73-4.69,10.93-1.96,18.85,3.1,20.85,14.13,1.77,9.77,1.97,19.83,2.91,29.76,.31,3.29,.75,6.56,1.25,10.76,4.42-.69,8.47-1.19,12.46-1.97,8.33-1.61,16.57-3.72,24.95-4.98,14.37-2.17,23.2,5.25,22.83,19.67-.26,10.29-1.82,20.54-2.8,30.81-.16,1.63-.32,3.26-.47,4.89,9.95,0,19.57,0,29.18,0,3.66,0,7.34-.16,10.99,.12,11.35,.84,17.77,8.77,15.28,19.8-1.75,7.75-4.66,15.24-7.19,22.79-1.48,4.41-3.2,8.74-4.85,13.1-1.41,3.72,0,5.04,3.79,5.31,11.46,.81,22.9,1.87,34.34,2.89,1.81,.16,3.62,.54,5.39,1,12.4,3.22,17.3,13.07,11.48,24.52-3.9,7.69-8.98,14.78-13.54,22.13-2.8,4.5-5.62,8.99-8.64,13.82,8.19,2.62,15.92,4.97,23.58,7.56,22.67,7.64,27.17,22.08,12.75,41.12-4.31,5.7-9.01,11.1-13.94,17.14,1.82,.96,3.66,1.61,5.13,2.75,7.19,5.57,14.64,10.87,21.28,17.03,5.08,4.71,5.98,11.34,4.52,18.11-2.9,13.4-9.68,23.61-22.4,30.01-18.11,9.11-37.28,15.05-56.54,20.92-21.31,6.49-42.38,13.85-63.87,19.64-26.6,7.17-53.5,5.21-80.22-.24-30.65-6.25-61.26-12.73-91.94-18.85-16.28-3.25-29.81,9.65-26.72,25.87,3.88,20.41,8.9,40.59,12.98,60.96,7.48,37.37,5.2,74.52-3.36,111.45-8.84,38.12-24.04,73.97-39.12,109.86-2.19,5.21-4.37,10.43-6.73,15.57-5.44,11.87-13.89,19.39-27.81,18.81-14.49-.6-25.94-6.3-31.66-20.22-3.02-7.35-4.8-15.2-7.16-22.83-.24-.77-.57-1.52-1.08-2.85-6.48,3.37-12.71,6.68-19,9.88-3.7,1.88-7.39,3.86-11.26,5.35-13.18,5.08-23.13,.78-27.8-12.51-2.8-7.98-4.6-16.32-6.84-24.49-.39-1.43-.78-2.86-1.23-4.5-9.42,3.85-18.59,7.61-27.78,11.36-1.54,.63-3.09,1.23-4.67,1.75-13.48,4.41-24.95-1.82-27.34-15.71-1.75-10.13-2.23-20.5-3.09-30.77-.55-6.56-.84-6.96-7.11-5.43-10.83,2.64-21.6,5.51-32.45,8.04-16.44,3.82-26.98-5.74-24.7-22.44,1.41-10.39,3.19-20.73,4.78-31.09,.22-1.46,.35-2.94,.51-4.37-6.21,0-12.14-.11-18.07,.03-7.15,.17-14.31,.98-21.44,.76-13.81-.42-21.29-10.3-17.81-23.72,2.8-10.78,6.42-21.34,9.65-32.01,.66-2.19,1.2-4.42,1.99-7.37-9.55-1.37-18.57-2.65-27.58-3.94-2.47-.35-4.96-.62-7.41-1.08-14.41-2.66-20.93-13.95-15.2-27.42,3.84-9.01,8.76-17.56,13.14-26.34,.95-1.89,1.68-3.89,2.76-6.41-2.89-.96-5.36-1.73-7.8-2.59-7.36-2.61-14.95-4.71-22-7.99-13.96-6.49-17.29-19.59-8.59-32.29,5.82-8.49,11.91-16.78,18.11-25.5-2.02-.66-3.53-1.32-5.12-1.65-13.73-2.88-23.43-11.63-31.56-22.25-13.97-18.23-8.02-39.36,13.84-46.17,32.54-10.13,65.32-19.55,98.27-28.24,18.14-4.79,36.75-8.09,55.32-10.96,27.09-4.19,53.79-.49,80.11,6.34,19.97,5.18,39.89,10.57,59.84,15.81,2.57,.68,5.2,1.22,7.84,1.51,13.07,1.45,22.24-4.85,24.7-17.77,3.6-18.95,4.4-37.64-1.42-56.73-12.43-40.75-9.42-81.68,1.99-122.16,11.31-40.11,27.61-78.41,43.58-116.8,5.61-13.48,15.65-22.91,29.88-27.37h10Z"/></svg>