<?xml version="1.0" encoding="utf-8"?>
<!-- Generator: Adobe Illustrator 27.9.0, SVG Export Plug-In . SVG Version: 6.00 Build 0)  -->
<svg version="1.1" xmlns="http://www.w3.org/2000/svg" xmlns:xlink="http://www.w3.org/1999/xlink" x="0px" y="0px"
	 viewBox="0 0 778.7 783.2" style="enable-background:new 0 0 778.7 783.2;" xml:space="preserve">
<style type="text/css">
	.st0{fill:none;stroke:#000000;stroke-width:58.5752;stroke-linecap:round;stroke-linejoin:round;stroke-miterlimit:10;}
	.st1{display:none;}
	.st2{display:inline;}
</style>
<g id="Layer_2_00000052812341660746727880000005723769822646866061_">
	<path class="st0" d="M428,33c14.1,3.8,20.7,14,23.7,27.4c1.1,36.4,46.6-29.1,56.9,10.4c-0.1,55.1,47.7-11.6,62.1,27.1
		c0.4,32.9,4.5,42.2,38,30.7c50.6,2.5-16.3,65.3,54.7,50.8c27.6,3.5,7.3,35.4,3,51c6.4,15.2,65.1-4.6,50.3,30.9
		c-52.3,57.4,46.6,23.8,13,77.5c-30.4,22.9,22,23.4,15.5,50.4c-2.7,12.3-8.9,21.6-20.5,27.5c-16.6,8.3-34.1,13.8-51.7,19.1
		c-19.5,5.9-38.8,12.7-58.5,18c-24.3,6.6-49,4.8-73.4-0.2c-28.1-5.7-56.1-11.7-84.1-17.3c-14.9-3-27.3,8.8-24.5,23.7
		c3.6,18.7,8.1,37.1,11.9,55.8c6.8,34.2,4.8,68.2-3.1,102c-8.1,34.9-22,67.7-35.8,100.5c-10.2,46.1-55.5,28.8-68.9-5.3
		c-42.4,13.9-35.3,13.2-61.2-24.3c-7.2-4.9-15.5-0.3-22.1,3.3c-33.9,20.4-24.4-34.9-46.6-42.3c-14.1-2.6-41.3,15.7-42.2-10.1
		c13.9-61.9-48.6-14.9-50.4-58.3c27.7-51.9-14.7-26.8-35.6-50.2c-4.3-40.4,38-37.1-19.8-60.8c-19.1-22.4,36.8-48.7-7.5-58.6
		c-5.2-2.2-10.6-8.4-13.2-13.5c-10-19.5,4.8-35.5,22.5-41.4c27-9,54.8-16.2,82.3-23.5c16.6-4.4,33.6-7.4,50.6-10
		c24.8-3.8,49.2-0.4,73.3,5.8c18.3,4.7,36.5,9.7,54.8,14.5c2.4,0.6,4.8,1.1,7.2,1.4c12,1.3,20.4-4.4,22.6-16.3
		c3.3-17.3,4-34.4-1.3-51.9c-11.4-37.3-8.6-74.8,1.8-111.8c10.4-36.7,25.3-71.8,39.9-106.9C397.5,43.6,411.5,31.1,428,33z"/>
</g>
<g id="Layer_3" class="st1">
	<path class="st2" d="M70.6,513.6h123.6l32,64.1c12.2,21.4,30.5,32.6,54.9,33.6h213.7c24.4-1,42.7-12.2,54.9-33.6l32-64.1h123.6
		v122.1c-1,15.3-9.2,23.4-24.4,24.4H95c-15.3-1-23.4-9.2-24.4-24.4V513.6L70.6,513.6z M691.7,440.3H574.2
		c-24.4,1-42.7,12.2-54.9,33.6l-32,64.1H288.8l-32-64.1c-12.2-21.4-30.5-32.6-54.9-33.6h-116l74.8-299.1
		c3.1-11.2,10.7-17.3,22.9-18.3h409c12.2,1,20.3,7.1,24.4,18.3L691.7,440.3L691.7,440.3z M-2.7,501.4v134.3
		c1,27.5,10.7,50.4,29,68.7c18.3,18.3,41.2,28,68.7,29H681c27.5-1,50.4-10.7,68.7-29c18.3-18.3,28-41.2,29-68.7V501.4
		c0-8.1-1-16.3-3.1-24.4l-88.5-352.5C681,102,669.3,84.2,652,71c-16.3-14.2-36.1-21.4-59.5-21.4h-409c-23.4,0-43.2,7.1-59.5,21.4
		c-17.3,13.2-29,31-35.1,53.4L0.4,477C-1.7,485.1-2.7,493.2-2.7,501.4L-2.7,501.4z"/>
</g>
</svg>
