<?xml version="1.0" encoding="UTF-8"?><svg id="Layer_1" xmlns="http://www.w3.org/2000/svg" viewBox="0 0 1023.96 1024"><path d="M309.09,651.27c-73.27-73.19-145.94-145.79-219.28-219.05,28.65-29.43,61.39-50.32,99.09-61.96,100.05-30.89,189.55-11.57,265.44,61.4,49.45,47.54,98.02,96.08,145.36,145.71,88.8,93.11,90.54,246.77,5.18,343.19-3.73,4.21-7.73,8.17-13.16,13.88-36.68-36.84-72.97-73.34-109.31-109.77-36.16-36.26-72.38-72.47-109.69-109.82-4.08,3.86-7.8,7.2-11.33,10.73-93.67,93.64-187.29,187.33-281,280.93-21.69,21.67-47.6,23.25-66.77,4.48-16.21-15.88-18.24-39.76-4.58-57.94,3.63-4.83,8.02-9.12,12.31-13.41,92.4-92.46,184.84-184.87,277.25-277.31,3.3-3.3,6.43-6.77,10.49-11.05Z"/><path d="M717.48,544.3c-79.53-79.55-158.08-158.11-237.39-237.44,1.48-2.53,3.17-5.89,5.27-8.96,62.16-90.87,124.34-181.73,186.56-272.57,21.11-30.81,50.03-33.75,76.29-7.54,85.72,85.54,171.38,171.16,256.99,256.82,27.39,27.41,24.65,56.25-7.37,78.19-90.82,62.23-181.71,124.38-272.57,186.54-2.47,1.69-5.05,3.23-7.77,4.96Z"/></svg>