<svg width="28" height="28" viewBox="0 0 28 28" fill="none" xmlns="http://www.w3.org/2000/svg">
<path d="M13.9531 25.9062C20.4922 25.9062 25.9062 20.4805 25.9062 13.9531C25.9062 7.41406 20.4805 2 13.9414 2C7.41406 2 2 7.41406 2 13.9531C2 20.4805 7.42578 25.9062 13.9531 25.9062ZM13.9531 23.9141C8.42188 23.9141 4.00391 19.4844 4.00391 13.9531C4.00391 8.42188 8.41016 3.99219 13.9414 3.99219C19.4727 3.99219 23.9141 8.42188 23.9141 13.9531C23.9141 19.4844 19.4844 23.9141 13.9531 23.9141Z" fill="black"/>
<path d="M8.51562 13.9531C8.51562 14.5273 8.91406 14.9141 9.51172 14.9141H12.957V18.3711C12.957 18.957 13.3555 19.3672 13.9297 19.3672C14.5156 19.3672 14.9258 18.9688 14.9258 18.3711V14.9141H18.3828C18.9688 14.9141 19.3789 14.5273 19.3789 13.9531C19.3789 13.3672 18.9688 12.957 18.3828 12.957H14.9258V9.51172C14.9258 8.91406 14.5156 8.50391 13.9297 8.50391C13.3555 8.50391 12.957 8.91406 12.957 9.51172V12.957H9.51172C8.91406 12.957 8.51562 13.3672 8.51562 13.9531Z" fill="black"/>
</svg>
