<?xml version="1.0" encoding="UTF-8"?><svg id="Layer_1" xmlns="http://www.w3.org/2000/svg" viewBox="0 0 1024 1024.28"><path d="M570.99,571.07v13.69c0,124.31,.09,248.62-.1,372.93-.03,19.89-4.18,38.98-20.69,52.2-19.92,15.95-41.92,18.96-65.29,7.44-22.02-10.85-29.77-30.24-31.49-53.03-.57-7.52-.1-15.12-.1-22.68,0-119.05,0-238.1,0-357.15v-13.41h-12.85c-124.97,0-249.94,.1-374.9-.1-21.46-.03-41.19-5.64-54.39-24.3-25.4-35.93-5.35-86.34,38.67-91.78,7.14-.88,14.34-1.72,21.52-1.73,122.99-.1,245.99-.08,368.99-.08h12.97c0-4.99,0-9.14,0-13.29,0-125.3-.08-250.59,.08-375.89,.03-21.66,6.39-40.99,25.41-53.69,36.16-24.13,83.71-3.33,90.53,39.48,1.08,6.78,1.58,13.72,1.59,20.58,.09,123,.07,245.99,.07,368.99,0,4.2,0,8.41,0,13.82,4.75,0,8.59,0,12.43,0,125.3,0,250.59-.04,375.89,.02,35.76,.02,59.82,19.85,64.21,52.55,3.92,29.18-16.54,57.81-45.57,63.12-8.02,1.47-16.29,2.19-24.44,2.2-123.32,.13-246.65,.09-369.97,.09-3.85,0-7.7,0-12.55,0Z"/></svg>