<?xml version="1.0" encoding="utf-8"?>
<!-- Generator: Adobe Illustrator 27.9.0, SVG Export Plug-In . SVG Version: 6.00 Build 0)  -->
<svg version="1.1" xmlns="http://www.w3.org/2000/svg" xmlns:xlink="http://www.w3.org/1999/xlink" x="0px" y="0px"
	 viewBox="0 0 128 128" style="enable-background:new 0 0 128 128;" xml:space="preserve">
<style type="text/css">
	.st0{opacity:0.4;fill:#86868B;}
	.st1{opacity:0.3;fill:#86868B;}
	.st2{fill:#86868B;}
	.st3{opacity:0.9;fill:#86868B;}
	.st4{opacity:0.8;fill:#86868B;}
	.st5{opacity:0.7;fill:#86868B;}
	.st6{opacity:0.6;fill:#86868B;}
	.st7{opacity:0.5;fill:#86868B;}
	.st8{display:none;}
	.st9{display:inline;fill:#86868B;}
	.st10{display:inline;opacity:0.9;fill:#86868B;enable-background:new    ;}
	.st11{display:inline;opacity:0.3;fill:#86868B;enable-background:new    ;}
	.st12{display:inline;opacity:0.8;fill:#86868B;enable-background:new    ;}
	.st13{display:inline;opacity:0.4;fill:#86868B;enable-background:new    ;}
	.st14{display:inline;opacity:0.7;fill:#86868B;enable-background:new    ;}
	.st15{display:inline;opacity:0.5;fill:#86868B;enable-background:new    ;}
	.st16{display:inline;opacity:0.6;fill:#86868B;enable-background:new    ;}
</style>
<g id="Layer_3">
	<path class="st0" d="M121.3,70.8h-28c-3.7,0-6.7-3-6.7-6.7v0c0-3.7,3-6.7,6.7-6.7h28c3.7,0,6.7,3,6.7,6.7v0
		C128,67.7,125,70.8,121.3,70.8z"/>
	<path class="st1" d="M109.3,28.3L89.5,48.1c-2.6,2.6-6.9,2.6-9.5,0l0,0c-2.6-2.6-2.6-6.9,0-9.5l19.8-19.8c2.6-2.6,6.9-2.6,9.5,0
		l0,0C111.9,21.4,111.9,25.7,109.3,28.3z"/>
	<path class="st2" d="M70.8,6.7v28c0,3.7-3,6.7-6.7,6.7h0c-3.7,0-6.7-3-6.7-6.7v-28C57.2,3,60.3,0,64,0l0,0C67.7,0,70.8,3,70.8,6.7z
		"/>
	<path class="st3" d="M28.3,18.7l19.8,19.8c2.6,2.6,2.6,6.9,0,9.5l0,0c-2.6,2.6-6.9,2.6-9.5,0L18.7,28.3c-2.6-2.6-2.6-6.9,0-9.5l0,0
		C21.4,16.1,25.7,16.1,28.3,18.7z"/>
	<path class="st4" d="M6.7,57.2h28c3.7,0,6.7,3,6.7,6.7v0c0,3.7-3,6.7-6.7,6.7h-28C3,70.8,0,67.7,0,64l0,0C0,60.3,3,57.2,6.7,57.2z"
		/>
	<path class="st5" d="M18.7,99.7l19.8-19.8c2.6-2.6,6.9-2.6,9.5,0l0,0c2.6,2.6,2.6,6.9,0,9.5l-19.8,19.8c-2.6,2.6-6.9,2.6-9.5,0l0,0
		C16.1,106.6,16.1,102.3,18.7,99.7z"/>
	<path class="st6" d="M57.2,121.3v-28c0-3.7,3-6.7,6.7-6.7h0c3.7,0,6.7,3,6.7,6.7v28c0,3.7-3,6.7-6.7,6.7h0
		C60.3,128,57.2,125,57.2,121.3z"/>
	<path class="st7" d="M99.7,109.3L79.9,89.5c-2.6-2.6-2.6-6.9,0-9.5l0,0c2.6-2.6,6.9-2.6,9.5,0l19.8,19.8c2.6,2.6,2.6,6.9,0,9.5l0,0
		C106.6,111.9,102.3,111.9,99.7,109.3z"/>
</g>
<g id="Layer_5" class="st8">
	
		<image style="display:inline;overflow:visible;opacity:0.48;" width="30" height="30" xlink:href="../../../../../../Pictures/Screenshots/Screenshot 2023-09-25 170411.png"  transform="matrix(4.2667 0 0 4.2667 0 0)">
	</image>
</g>
<g id="Layer_4" class="st8">
	<path id="Path_1-path_00000175323405187666690970000015760518981450636221_" class="st9" d="M64-0.1c-3.4,0-6.8,2.5-6.8,6.8V27
		c0,3.4,3.4,6.8,6.8,6.8s6.8-3.4,6.8-6.8V6.6C70.8,2.4,67.4-0.1,64-0.1L64-0.1z"/>
	<path id="Path_1-path_00000081631631772132624320000008773841075896745886_" class="st10" d="M23.9,16.8c-2.6,0-4.3,0-5.1,1.7
		c-2.6,2.5-2.6,6.8,0,9.3l14.5,14.4c2.6,2.5,6.8,2.5,9.4,0c2.6-2.5,2.6-6.8,0-9.3L28.2,18.5C27.3,16.8,25.6,16.8,23.9,16.8
		L23.9,16.8z"/>
	<path id="Path_1-path_00000108277489669104607750000008547392923617069468_" class="st11" d="M105,16.8c-2.6,0-4.3,0-5.1,1.7
		L85.3,32.9c-2.6,2.5-2.6,6.8,0,9.3c2.6,2.5,6.8,2.5,9.4,0l14.5-14.4c2.6-2.5,2.6-6.8,0-9.3C108.4,16.8,106.7,16.8,105,16.8
		L105,16.8z"/>
	<path id="Path_1-path_00000133522749776887349680000010008738539224004994_" class="st12" d="M6.8,56.6C3.4,56.6,0,60,0,63.4
		c0,3.4,3.4,6.8,6.8,6.8h20.5c3.4,0,6.8-3.4,6.8-6.8c0-3.4-3.4-6.8-6.8-6.8H6.8z"/>
	<path id="Path_1-path_00000043423808903560024380000011355382594103785617_" class="st13" d="M100.7,56.6c-3.4,0-6.8,3.4-6.8,6.8
		c0,3.4,3.4,6.8,6.8,6.8h20.5c3.4,0,6.8-3.4,6.8-6.8c0-3.4-3.4-6.8-6.8-6.8H100.7z"/>
	<path id="Path_1-path_00000177482911301590068080000010446082581097783943_" class="st14" d="M33.3,84.6C30.7,87.2,18.8,99,18.8,99
		c-1.7,1.7-2.6,4.2-1.7,5.9c0.9,1.7,2.6,4.2,5.1,5.1s5.1,0,6.8-1.7l13.7-14.4c2.6-2.5,2.6-6.8,0-9.3C40.1,82.1,35.8,82.1,33.3,84.6
		L33.3,84.6z"/>
	<path id="Path_1-path_00000180365900538302449650000001491753165627486594_" class="st15" d="M85.3,84.6c-2.6,2.5-2.6,6.8,0,9.3
		l14.5,14.4c1.7,1.7,4.3,2.5,6.8,1.7c2.6-0.8,4.3-2.5,5.1-5.1c0.9-2.5,0-5.1-1.7-6.8L94.7,84.6C92.2,82.1,87.9,82.1,85.3,84.6
		L85.3,84.6z"/>
	<path id="Path_1-path_00000141415321902441820790000001600856964424697006_" class="st16" d="M64,93.9c-3.4,0-6.8,3.4-6.8,6.8v20.3
		c0,3.4,3.4,6.8,6.8,6.8s6.8-3.4,6.8-6.8v-20.3C70.8,96.5,67.4,93.9,64,93.9L64,93.9z"/>
</g>
</svg>
